<?xml version="1.0" encoding="iso-8859-1"?>
<!-- Generator: Adobe Illustrator 19.0.1, SVG Export Plug-In . SVG Version: 6.00 Build 0)  -->
<svg version="1.1" xmlns="http://www.w3.org/2000/svg" xmlns:xlink="http://www.w3.org/1999/xlink" x="0px" y="0px"
	 viewBox="0 0 128 128" style="enable-background:new 0 0 128 128;" xml:space="preserve">
<g id="_x31_0">
	<path id="icon_9_" style="fill:#191919;" d="M114.123,128H13.877V0h100.245V128z M19.759,122.118h88.482V5.882H19.759V122.118z
		 M103.533,9.849H23.53v9.744h80.002V9.849z M103.781,28.607H54.44v3.701h49.341V28.607z M103.781,37.951H67.243v4.857h36.538
		V37.951z M103.781,47.83H39.722v3.932h64.059V47.83z M87.364,69.95h16.417v-2.775H87.364V69.95z M87.364,74.575h16.417V71.8H87.364
		V74.575z M87.364,79.201h16.417v-2.775H87.364V79.201z M103.533,81.576H72.001v2.467h31.532V81.576z M103.533,87.21H87.188v1.619
		h16.344V87.21z M103.533,91.907H87.188v1.619h16.344V91.907z M103.533,102.084H77.86v2.004h25.673V102.084z M103.533,107.409
		H85.801v1.542h17.732V107.409z M103.533,111.032H85.801v1.465h17.732V111.032z M57.298,95.734H21.526v4.394h35.772V95.734z
		 M57.298,103.68H22.297v2.698h35.001V103.68z M27.206,111.319h-1.47v8.326h1.47V111.319z M30.29,111.319h-1.47v8.326h1.47V111.319z
		 M33.375,111.319h-1.47v8.326h1.47V111.319z M36.458,111.319h-1.47v8.326h1.47V111.319z M39.542,114.068h-1.47v5.576h1.47V114.068z
		 M42.625,114.068h-1.47v5.576h1.47V114.068z M45.253,120.379H22.885v-10.698h22.368V120.379z M24.356,118.909h19.427v-7.757H24.356
		V118.909z"/>
</g>
<g id="Layer_1">
</g>
</svg>
